<svg width="1920" height="576" fill="none" xmlns="http://www.w3.org/2000/svg"><path d="M1522.47 226.239c-9.9 0-17.41-10.181-17.46-21.266-.29-27.927 6.85-57.614 18.6-87.967.52-1.38 2.24-1.332 2.71.095 10.23 30.924 14.99 60.373 13.66 88.538-.43 10.894-7.85 20.6-17.51 20.6z" fill="#4B2D9F"/><path d="M1522.47 226.239c-9.9 0-17.41-10.181-17.46-21.266-.29-27.927 6.85-57.614 18.6-87.967.52-1.38 2.24-1.332 2.71.095 10.23 30.924 14.99 60.373 13.66 88.538-.43 10.894-7.85 20.6-17.51 20.6z" fill="#4B2D9F" stroke="#00233A" stroke-width="2.855" stroke-miterlimit="10" stroke-linecap="round" stroke-linejoin="round"/><path d="M1523.61 263.015v-90.489 90.489z" fill="#4B2D9F"/><path d="M1523.61 263.015v-90.489" stroke="#00233A" stroke-width="2.855" stroke-miterlimit="10" stroke-linecap="round" stroke-linejoin="round"/><path d="M1530.65 196.314l-7.04 8.088 7.04-8.088z" fill="#4B2D9F"/><path d="M1530.65 196.314l-7.04 8.088" stroke="#00233A" stroke-width="2.855" stroke-miterlimit="10" stroke-linecap="round" stroke-linejoin="round"/><path d="M1528.27 177.332l-4.66 6.85 4.66-6.85z" fill="#4B2D9F"/><path d="M1528.27 177.332l-4.66 6.85" stroke="#00233A" stroke-width="2.855" stroke-miterlimit="10" stroke-linecap="round" stroke-linejoin="round"/><path d="M1523.61 194.887l-6.28-4.472 6.28 4.472z" fill="#4B2D9F"/><path d="M1523.61 194.887l-6.28-4.472" stroke="#00233A" stroke-width="2.855" stroke-miterlimit="10" stroke-linecap="round" stroke-linejoin="round"/><path d="M1725.33 258.164c-5.85 0-10.3-6.019-10.33-12.571-.16-16.508 4.05-34.056 11-51.999.31-.815 1.32-.787 1.6.057 6.05 18.279 8.86 35.687 8.07 52.336-.25 6.44-4.64 12.177-10.34 12.177z" fill="#4B2D9F"/><path d="M1725.33 258.164c-5.85 0-10.3-6.019-10.33-12.571-.16-16.508 4.05-34.056 11-51.999.31-.815 1.32-.787 1.6.057 6.05 18.279 8.86 35.687 8.07 52.336-.25 6.44-4.64 12.177-10.34 12.177z" fill="#4B2D9F" stroke="#00233A" stroke-width="1.687" stroke-miterlimit="10" stroke-linecap="round" stroke-linejoin="round"/><path d="M1726 279.902v-53.488 53.488z" fill="#4B2D9F"/><path d="M1726 279.902v-53.488" stroke="#00233A" stroke-width="1.687" stroke-miterlimit="10" stroke-linecap="round" stroke-linejoin="round"/><path d="M1730.16 240.475l-4.16 4.78 4.16-4.78z" fill="#4B2D9F"/><path d="M1730.16 240.475l-4.16 4.78" stroke="#00233A" stroke-width="1.687" stroke-miterlimit="10" stroke-linecap="round" stroke-linejoin="round"/><path d="M1728.76 229.254l-2.76 4.05 2.76-4.05z" fill="#4B2D9F"/><path d="M1728.76 229.254l-2.76 4.05" stroke="#00233A" stroke-width="1.687" stroke-miterlimit="10" stroke-linecap="round" stroke-linejoin="round"/><path d="M1726 239.631l-3.71-2.644 3.71 2.644z" fill="#4B2D9F"/><path d="M1726 239.631l-3.71-2.644" stroke="#00233A" stroke-width="1.687" stroke-miterlimit="10" stroke-linecap="round" stroke-linejoin="round"/><path d="M1700.55 253.331c-3.71 0-6.53-3.817-6.55-7.973-.1-10.471 2.57-21.601 6.98-32.981.19-.517.84-.499 1.01.036 3.84 11.594 5.62 22.635 5.12 33.194-.16 4.085-2.94 7.724-6.56 7.724z" fill="#4B2D9F"/><path d="M1700.55 253.331c-3.71 0-6.53-3.817-6.55-7.973-.1-10.471 2.57-21.601 6.98-32.981.19-.517.84-.499 1.01.036 3.84 11.594 5.62 22.635 5.12 33.194-.16 4.085-2.94 7.724-6.56 7.724z" fill="#4B2D9F" stroke="#00233A" stroke-width="1.07" stroke-miterlimit="10" stroke-linecap="round" stroke-linejoin="round"/><path d="M1700.98 267.119v-33.926 33.926z" fill="#4B2D9F"/><path d="M1700.98 267.119v-33.926" stroke="#00233A" stroke-width="1.07" stroke-miterlimit="10" stroke-linecap="round" stroke-linejoin="round"/><path d="M1703.62 242.111l-2.64 3.033 2.64-3.033z" fill="#4B2D9F"/><path d="M1703.62 242.111l-2.64 3.033" stroke="#00233A" stroke-width="1.07" stroke-miterlimit="10" stroke-linecap="round" stroke-linejoin="round"/><path d="M1702.72 234.995l-1.74 2.568 1.74-2.568z" fill="#4B2D9F"/><path d="M1702.72 234.995l-1.74 2.568" stroke="#00233A" stroke-width="1.07" stroke-miterlimit="10" stroke-linecap="round" stroke-linejoin="round"/><path d="M1700.98 241.576l-2.36-1.677 2.36 1.677z" fill="#4B2D9F"/><path d="M1700.98 241.576l-2.36-1.677" stroke="#00233A" stroke-width="1.07" stroke-miterlimit="10" stroke-linecap="round" stroke-linejoin="round"/><path d="M487.468 211.239c-9.895 0-17.412-10.181-17.46-21.266-.285-27.927 6.851-57.614 18.602-87.967.524-1.38 2.236-1.332 2.712.095 10.229 30.924 14.986 60.373 13.654 88.538-.428 10.894-7.85 20.6-17.508 20.6z" fill="#4B2D9F"/><path d="M487.468 211.239c-9.895 0-17.412-10.181-17.46-21.266-.285-27.927 6.851-57.614 18.602-87.967.524-1.38 2.236-1.332 2.712.095 10.229 30.924 14.986 60.373 13.654 88.538-.428 10.894-7.85 20.6-17.508 20.6z" fill="#4B2D9F" stroke="#00233A" stroke-width="2.855" stroke-miterlimit="10" stroke-linecap="round" stroke-linejoin="round"/><path d="M488.609 248.015v-90.489 90.489z" fill="#4B2D9F"/><path d="M488.609 248.015v-90.489" stroke="#00233A" stroke-width="2.855" stroke-miterlimit="10" stroke-linecap="round" stroke-linejoin="round"/><path d="M495.651 181.314l-7.042 8.088 7.042-8.088z" fill="#4B2D9F"/><path d="M495.651 181.314l-7.042 8.088" stroke="#00233A" stroke-width="2.855" stroke-miterlimit="10" stroke-linecap="round" stroke-linejoin="round"/><path d="M493.272 162.332l-4.663 6.85 4.663-6.85z" fill="#4B2D9F"/><path d="M493.272 162.332l-4.663 6.85" stroke="#00233A" stroke-width="2.855" stroke-miterlimit="10" stroke-linecap="round" stroke-linejoin="round"/><path d="M488.61 179.887l-6.28-4.472 6.28 4.472z" fill="#4B2D9F"/><path d="M488.61 179.887l-6.28-4.472" stroke="#00233A" stroke-width="2.855" stroke-miterlimit="10" stroke-linecap="round" stroke-linejoin="round"/><path d="M289.514 170.746c-6.53 0-11.491-6.718-11.522-14.033-.189-18.429 4.521-38.019 12.275-58.05.346-.91 1.476-.878 1.79.064 6.75 20.406 9.889 39.84 9.01 58.425-.283 7.19-5.18 13.594-11.553 13.594z" fill="#4B2D9F"/><path d="M289.514 170.746c-6.53 0-11.491-6.718-11.522-14.033-.189-18.429 4.521-38.019 12.275-58.05.346-.91 1.476-.878 1.79.064 6.75 20.406 9.889 39.84 9.01 58.425-.283 7.19-5.18 13.594-11.553 13.594z" fill="#4B2D9F" stroke="#00233A" stroke-width="1.884" stroke-miterlimit="10" stroke-linecap="round" stroke-linejoin="round"/><path d="M290.268 195.015v-59.713 59.713z" fill="#4B2D9F"/><path d="M290.268 195.015v-59.713" stroke="#00233A" stroke-width="1.884" stroke-miterlimit="10" stroke-linecap="round" stroke-linejoin="round"/><path d="M294.914 150.999l-4.646 5.337 4.646-5.337z" fill="#4B2D9F"/><path d="M294.914 150.999l-4.646 5.337" stroke="#00233A" stroke-width="1.884" stroke-miterlimit="10" stroke-linecap="round" stroke-linejoin="round"/><path d="M293.344 138.473l-3.076 4.521 3.076-4.521z" fill="#4B2D9F"/><path d="M293.344 138.473l-3.076 4.521" stroke="#00233A" stroke-width="1.884" stroke-miterlimit="10" stroke-linecap="round" stroke-linejoin="round"/><path d="M290.267 150.057l-4.144-2.951 4.144 2.951z" fill="#4B2D9F"/><path d="M290.267 150.057l-4.144-2.951" stroke="#00233A" stroke-width="1.884" stroke-miterlimit="10" stroke-linecap="round" stroke-linejoin="round"/><path d="M642.468 275.239c-9.895 0-17.412-10.181-17.46-21.266-.285-27.927 6.851-57.614 18.602-87.967.524-1.38 2.236-1.332 2.712.095 10.229 30.924 14.986 60.373 13.654 88.538-.428 10.894-7.85 20.6-17.508 20.6z" fill="#4B2D9F"/><path d="M642.468 275.239c-9.895 0-17.412-10.181-17.46-21.266-.285-27.927 6.851-57.614 18.602-87.967.524-1.38 2.236-1.332 2.712.095 10.229 30.924 14.986 60.373 13.654 88.538-.428 10.894-7.85 20.6-17.508 20.6z" fill="#4B2D9F" stroke="#00233A" stroke-width="2.855" stroke-miterlimit="10" stroke-linecap="round" stroke-linejoin="round"/><path d="M643.609 312.015v-90.489 90.489z" fill="#4B2D9F"/><path d="M643.609 312.015v-90.489" stroke="#00233A" stroke-width="2.855" stroke-miterlimit="10" stroke-linecap="round" stroke-linejoin="round"/><path d="M650.651 245.314l-7.042 8.088 7.042-8.088z" fill="#4B2D9F"/><path d="M650.651 245.314l-7.042 8.088" stroke="#00233A" stroke-width="2.855" stroke-miterlimit="10" stroke-linecap="round" stroke-linejoin="round"/><path d="M648.272 226.332l-4.663 6.85 4.663-6.85z" fill="#4B2D9F"/><path d="M648.272 226.332l-4.663 6.85" stroke="#00233A" stroke-width="2.855" stroke-miterlimit="10" stroke-linecap="round" stroke-linejoin="round"/><path d="M643.612 243.887l-6.28-4.472 6.28 4.472z" fill="#4B2D9F"/><path d="M643.612 243.887l-6.28-4.472" stroke="#00233A" stroke-width="2.855" stroke-miterlimit="10" stroke-linecap="round" stroke-linejoin="round"/><ellipse cx="94" cy="783.5" rx="916" ry="610.5" fill="#1B0069"/><ellipse cx="-170" cy="783.5" rx="916" ry="610.5" fill="#21007E"/><ellipse cx="1491" cy="860.5" rx="916" ry="610.5" fill="#1B0069"/><ellipse cx="1491" cy="952.5" rx="916" ry="610.5" fill="#21007E"/><path d="M1320 273.667c12.7 0 23-27.46 23-61.334 0-33.873-10.3-61.333-23-61.333s-23 27.46-23 61.333c0 33.874 10.3 61.334 23 61.334z" fill="#5334AA"/><path d="M1320 273.667c12.7 0 23-27.46 23-61.334 0-33.873-10.3-61.333-23-61.333s-23 27.46-23 61.333c0 33.874 10.3 61.334 23 61.334zM1319.88 192.094v119.983M1320 229.66l9.08-11.883M1320 253.044l-9.81-10.235M1319.88 212.142l-7.93-8.932" stroke="#00233A" stroke-width="3.833" stroke-miterlimit="10" stroke-linecap="round" stroke-linejoin="round"/><path d="M1248.72 234.714c-20.8 0-36.6-21.4-36.7-44.7-.6-58.7 14.4-121.1 39.1-184.9 1.1-2.9 4.7-2.8 5.7.2 21.5 65 31.5 126.9 28.7 186.1-.9 22.9-16.5 43.3-36.8 43.3z" fill="#4B2D9F"/><path d="M1248.72 234.714c-20.8 0-36.6-21.4-36.7-44.7-.6-58.7 14.4-121.1 39.1-184.9 1.1-2.9 4.7-2.8 5.7.2 21.5 65 31.5 126.9 28.7 186.1-.9 22.9-16.5 43.3-36.8 43.3z" fill="#4B2D9F" stroke="#00233A" stroke-width="6" stroke-miterlimit="10" stroke-linecap="round" stroke-linejoin="round"/><path d="M1251.12 312.014v-190.2 190.2z" fill="#4B2D9F"/><path d="M1251.12 312.014v-190.2" stroke="#00233A" stroke-width="6" stroke-miterlimit="10" stroke-linecap="round" stroke-linejoin="round"/><path d="M1265.92 171.814l-14.8 17 14.8-17z" fill="#4B2D9F"/><path d="M1265.92 171.814l-14.8 17" stroke="#00233A" stroke-width="6" stroke-miterlimit="10" stroke-linecap="round" stroke-linejoin="round"/><path d="M1260.92 131.914l-9.8 14.4 9.8-14.4z" fill="#4B2D9F"/><path d="M1260.92 131.914l-9.8 14.4" stroke="#00233A" stroke-width="6" stroke-miterlimit="10" stroke-linecap="round" stroke-linejoin="round"/><path d="M1251.12 168.814l-13.2-9.4 13.2 9.4z" fill="#4B2D9F"/><path d="M1251.12 168.814l-13.2-9.4" stroke="#00233A" stroke-width="6" stroke-miterlimit="10" stroke-linecap="round" stroke-linejoin="round"/><path d="M707.092 234.202c-11.987.09-20.967-5.747-28.42-13.873-1.437-1.617-2.828-3.772-4.085-6.196-6.421-12.123-8.127-26.175-5.209-39.6 4.804-21.999 15.31-61.419 33.584-90.243 1.93-3.053 6.375-3.053 8.306 0 18.228 28.824 28.734 68.244 33.583 90.243 2.918 13.38 1.167 27.477-5.208 39.6-1.257 2.379-2.649 4.534-4.086 6.196-7.498 8.126-16.477 13.963-28.465 13.873z" fill="#4B2D9F"/><path opacity=".4" d="M744.311 174.533c-4.804-21.999-15.31-61.419-33.583-90.243-1.437-2.245-4.265-2.829-6.42-1.706 1.706 1.392 3.143 3.188 4.22 5.387 13.963 28.465 22.449 61.061 26.759 80.771 3.188 14.501 1.302 29.677-5.567 42.832-1.437 2.738-2.964 5.208-4.625 7.093-7.004 7.633-15.265 13.47-25.771 14.861 2.29.494 4.67.719 7.229.719 11.987.09 20.967-5.747 28.42-13.873 1.436-1.617 2.828-3.772 4.085-6.196 6.466-12.167 8.217-26.22 5.253-39.645z" fill="#331783"/><path d="M707.092 234.202c-11.987.09-20.967-5.747-28.42-13.873-1.437-1.617-2.828-3.772-4.085-6.196-6.421-12.123-8.127-26.175-5.209-39.6 4.804-21.999 15.31-61.419 33.584-90.243 1.93-3.053 6.375-3.053 8.306 0 18.228 28.824 28.734 68.244 33.583 90.243 2.918 13.38 1.167 27.477-5.208 39.6-1.257 2.379-2.649 4.534-4.086 6.196-7.498 8.126-16.477 13.963-28.465 13.873zM707.094 208.7l18.857-13.604M707.09 189.843l-16.836-13.02M707.094 284.577V157.966" stroke="#00233A" stroke-width="4.49" stroke-miterlimit="10" stroke-linecap="round" stroke-linejoin="round"/><ellipse cx="973" cy="860.5" rx="916" ry="610.5" fill="#270095"/></svg>