<svg width="1920" height="576" viewBox="0 0 1920 576" fill="none" xmlns="http://www.w3.org/2000/svg">
<path d="M1522.47 226.239C1512.57 226.239 1505.06 216.058 1505.01 204.973C1504.72 177.046 1511.86 147.359 1523.61 117.006C1524.13 115.626 1525.85 115.674 1526.32 117.101C1536.55 148.025 1541.31 177.474 1539.98 205.639C1539.55 216.533 1532.13 226.239 1522.47 226.239Z" fill="#4B2D9F"/>
<path d="M1522.47 226.239C1512.57 226.239 1505.06 216.058 1505.01 204.973C1504.72 177.046 1511.86 147.359 1523.61 117.006C1524.13 115.626 1525.85 115.674 1526.32 117.101C1536.55 148.025 1541.31 177.474 1539.98 205.639C1539.55 216.533 1532.13 226.239 1522.47 226.239Z" fill="#4B2D9F" stroke="#00233A" stroke-width="2.85452" stroke-miterlimit="10" stroke-linecap="round" stroke-linejoin="round"/>
<path d="M1523.61 263.015V172.526V263.015Z" fill="#4B2D9F"/>
<path d="M1523.61 263.015V172.526" stroke="#00233A" stroke-width="2.85452" stroke-miterlimit="10" stroke-linecap="round" stroke-linejoin="round"/>
<path d="M1530.65 196.314L1523.61 204.402L1530.65 196.314Z" fill="#4B2D9F"/>
<path d="M1530.65 196.314L1523.61 204.402" stroke="#00233A" stroke-width="2.85452" stroke-miterlimit="10" stroke-linecap="round" stroke-linejoin="round"/>
<path d="M1528.27 177.332L1523.61 184.182L1528.27 177.332Z" fill="#4B2D9F"/>
<path d="M1528.27 177.332L1523.61 184.182" stroke="#00233A" stroke-width="2.85452" stroke-miterlimit="10" stroke-linecap="round" stroke-linejoin="round"/>
<path d="M1523.61 194.887L1517.33 190.415L1523.61 194.887Z" fill="#4B2D9F"/>
<path d="M1523.61 194.887L1517.33 190.415" stroke="#00233A" stroke-width="2.85452" stroke-miterlimit="10" stroke-linecap="round" stroke-linejoin="round"/>
<path d="M1725.33 258.164C1719.48 258.164 1715.03 252.145 1715 245.593C1714.84 229.085 1719.05 211.537 1726 193.594C1726.31 192.779 1727.32 192.807 1727.6 193.651C1733.65 211.93 1736.46 229.338 1735.67 245.987C1735.42 252.427 1731.03 258.164 1725.33 258.164Z" fill="#4B2D9F"/>
<path d="M1725.33 258.164C1719.48 258.164 1715.03 252.145 1715 245.593C1714.84 229.085 1719.05 211.537 1726 193.594C1726.31 192.779 1727.32 192.807 1727.6 193.651C1733.65 211.93 1736.46 229.338 1735.67 245.987C1735.42 252.427 1731.03 258.164 1725.33 258.164Z" fill="#4B2D9F" stroke="#00233A" stroke-width="1.68734" stroke-miterlimit="10" stroke-linecap="round" stroke-linejoin="round"/>
<path d="M1726 279.902V226.414V279.902Z" fill="#4B2D9F"/>
<path d="M1726 279.902V226.414" stroke="#00233A" stroke-width="1.68734" stroke-miterlimit="10" stroke-linecap="round" stroke-linejoin="round"/>
<path d="M1730.16 240.475L1726 245.255L1730.16 240.475Z" fill="#4B2D9F"/>
<path d="M1730.16 240.475L1726 245.255" stroke="#00233A" stroke-width="1.68734" stroke-miterlimit="10" stroke-linecap="round" stroke-linejoin="round"/>
<path d="M1728.76 229.254L1726 233.304L1728.76 229.254Z" fill="#4B2D9F"/>
<path d="M1728.76 229.254L1726 233.304" stroke="#00233A" stroke-width="1.68734" stroke-miterlimit="10" stroke-linecap="round" stroke-linejoin="round"/>
<path d="M1726 239.631L1722.29 236.987L1726 239.631Z" fill="#4B2D9F"/>
<path d="M1726 239.631L1722.29 236.987" stroke="#00233A" stroke-width="1.68734" stroke-miterlimit="10" stroke-linecap="round" stroke-linejoin="round"/>
<path d="M1700.55 253.331C1696.84 253.331 1694.02 249.514 1694 245.358C1693.9 234.887 1696.57 223.757 1700.98 212.377C1701.17 211.86 1701.82 211.878 1701.99 212.413C1705.83 224.007 1707.61 235.048 1707.11 245.607C1706.95 249.692 1704.17 253.331 1700.55 253.331Z" fill="#4B2D9F"/>
<path d="M1700.55 253.331C1696.84 253.331 1694.02 249.514 1694 245.358C1693.9 234.887 1696.57 223.757 1700.98 212.377C1701.17 211.86 1701.82 211.878 1701.99 212.413C1705.83 224.007 1707.61 235.048 1707.11 245.607C1706.95 249.692 1704.17 253.331 1700.55 253.331Z" fill="#4B2D9F" stroke="#00233A" stroke-width="1.07022" stroke-miterlimit="10" stroke-linecap="round" stroke-linejoin="round"/>
<path d="M1700.98 267.119V233.193V267.119Z" fill="#4B2D9F"/>
<path d="M1700.98 267.119V233.193" stroke="#00233A" stroke-width="1.07022" stroke-miterlimit="10" stroke-linecap="round" stroke-linejoin="round"/>
<path d="M1703.62 242.111L1700.98 245.144L1703.62 242.111Z" fill="#4B2D9F"/>
<path d="M1703.62 242.111L1700.98 245.144" stroke="#00233A" stroke-width="1.07022" stroke-miterlimit="10" stroke-linecap="round" stroke-linejoin="round"/>
<path d="M1702.72 234.995L1700.98 237.563L1702.72 234.995Z" fill="#4B2D9F"/>
<path d="M1702.72 234.995L1700.98 237.563" stroke="#00233A" stroke-width="1.07022" stroke-miterlimit="10" stroke-linecap="round" stroke-linejoin="round"/>
<path d="M1700.98 241.576L1698.62 239.899L1700.98 241.576Z" fill="#4B2D9F"/>
<path d="M1700.98 241.576L1698.62 239.899" stroke="#00233A" stroke-width="1.07022" stroke-miterlimit="10" stroke-linecap="round" stroke-linejoin="round"/>
<path d="M487.468 211.239C477.573 211.239 470.056 201.058 470.008 189.973C469.723 162.046 476.859 132.359 488.61 102.006C489.134 100.626 490.846 100.674 491.322 102.101C501.551 133.025 506.308 162.474 504.976 190.639C504.548 201.533 497.126 211.239 487.468 211.239Z" fill="#4B2D9F"/>
<path d="M487.468 211.239C477.573 211.239 470.056 201.058 470.008 189.973C469.723 162.046 476.859 132.359 488.61 102.006C489.134 100.626 490.846 100.674 491.322 102.101C501.551 133.025 506.308 162.474 504.976 190.639C504.548 201.533 497.126 211.239 487.468 211.239Z" fill="#4B2D9F" stroke="#00233A" stroke-width="2.85452" stroke-miterlimit="10" stroke-linecap="round" stroke-linejoin="round"/>
<path d="M488.609 248.015V157.526V248.015Z" fill="#4B2D9F"/>
<path d="M488.609 248.015V157.526" stroke="#00233A" stroke-width="2.85452" stroke-miterlimit="10" stroke-linecap="round" stroke-linejoin="round"/>
<path d="M495.651 181.314L488.609 189.402L495.651 181.314Z" fill="#4B2D9F"/>
<path d="M495.651 181.314L488.609 189.402" stroke="#00233A" stroke-width="2.85452" stroke-miterlimit="10" stroke-linecap="round" stroke-linejoin="round"/>
<path d="M493.272 162.332L488.609 169.182L493.272 162.332Z" fill="#4B2D9F"/>
<path d="M493.272 162.332L488.609 169.182" stroke="#00233A" stroke-width="2.85452" stroke-miterlimit="10" stroke-linecap="round" stroke-linejoin="round"/>
<path d="M488.61 179.887L482.33 175.415L488.61 179.887Z" fill="#4B2D9F"/>
<path d="M488.61 179.887L482.33 175.415" stroke="#00233A" stroke-width="2.85452" stroke-miterlimit="10" stroke-linecap="round" stroke-linejoin="round"/>
<path d="M289.514 170.746C282.984 170.746 278.023 164.028 277.992 156.713C277.803 138.284 282.513 118.694 290.267 98.6637C290.613 97.7532 291.743 97.7846 292.057 98.7265C298.807 119.133 301.946 138.567 301.067 157.152C300.784 164.342 295.887 170.746 289.514 170.746Z" fill="#4B2D9F"/>
<path d="M289.514 170.746C282.984 170.746 278.023 164.028 277.992 156.713C277.803 138.284 282.513 118.694 290.267 98.6637C290.613 97.7532 291.743 97.7846 292.057 98.7265C298.807 119.133 301.946 138.567 301.067 157.152C300.784 164.342 295.887 170.746 289.514 170.746Z" fill="#4B2D9F" stroke="#00233A" stroke-width="1.88369" stroke-miterlimit="10" stroke-linecap="round" stroke-linejoin="round"/>
<path d="M290.268 195.015V135.302V195.015Z" fill="#4B2D9F"/>
<path d="M290.268 195.015V135.302" stroke="#00233A" stroke-width="1.88369" stroke-miterlimit="10" stroke-linecap="round" stroke-linejoin="round"/>
<path d="M294.914 150.999L290.268 156.336L294.914 150.999Z" fill="#4B2D9F"/>
<path d="M294.914 150.999L290.268 156.336" stroke="#00233A" stroke-width="1.88369" stroke-miterlimit="10" stroke-linecap="round" stroke-linejoin="round"/>
<path d="M293.344 138.473L290.268 142.994L293.344 138.473Z" fill="#4B2D9F"/>
<path d="M293.344 138.473L290.268 142.994" stroke="#00233A" stroke-width="1.88369" stroke-miterlimit="10" stroke-linecap="round" stroke-linejoin="round"/>
<path d="M290.267 150.057L286.123 147.106L290.267 150.057Z" fill="#4B2D9F"/>
<path d="M290.267 150.057L286.123 147.106" stroke="#00233A" stroke-width="1.88369" stroke-miterlimit="10" stroke-linecap="round" stroke-linejoin="round"/>
<path d="M642.468 275.239C632.573 275.239 625.056 265.058 625.008 253.973C624.723 226.046 631.859 196.359 643.61 166.006C644.134 164.626 645.846 164.674 646.322 166.101C656.551 197.025 661.308 226.474 659.976 254.639C659.548 265.533 652.126 275.239 642.468 275.239Z" fill="#4B2D9F"/>
<path d="M642.468 275.239C632.573 275.239 625.056 265.058 625.008 253.973C624.723 226.046 631.859 196.359 643.61 166.006C644.134 164.626 645.846 164.674 646.322 166.101C656.551 197.025 661.308 226.474 659.976 254.639C659.548 265.533 652.126 275.239 642.468 275.239Z" fill="#4B2D9F" stroke="#00233A" stroke-width="2.85452" stroke-miterlimit="10" stroke-linecap="round" stroke-linejoin="round"/>
<path d="M643.609 312.015V221.526V312.015Z" fill="#4B2D9F"/>
<path d="M643.609 312.015V221.526" stroke="#00233A" stroke-width="2.85452" stroke-miterlimit="10" stroke-linecap="round" stroke-linejoin="round"/>
<path d="M650.651 245.314L643.609 253.402L650.651 245.314Z" fill="#4B2D9F"/>
<path d="M650.651 245.314L643.609 253.402" stroke="#00233A" stroke-width="2.85452" stroke-miterlimit="10" stroke-linecap="round" stroke-linejoin="round"/>
<path d="M648.272 226.332L643.609 233.182L648.272 226.332Z" fill="#4B2D9F"/>
<path d="M648.272 226.332L643.609 233.182" stroke="#00233A" stroke-width="2.85452" stroke-miterlimit="10" stroke-linecap="round" stroke-linejoin="round"/>
<path d="M643.612 243.887L637.332 239.415L643.612 243.887Z" fill="#4B2D9F"/>
<path d="M643.612 243.887L637.332 239.415" stroke="#00233A" stroke-width="2.85452" stroke-miterlimit="10" stroke-linecap="round" stroke-linejoin="round"/>
<ellipse cx="94" cy="783.5" rx="916" ry="610.5" fill="#1B0069"/>
<ellipse cx="-170" cy="783.5" rx="916" ry="610.5" fill="#21007E"/>
<ellipse cx="1491" cy="860.5" rx="916" ry="610.5" fill="#1B0069"/>
<ellipse cx="1491" cy="952.5" rx="916" ry="610.5" fill="#21007E"/>
<path d="M1320 273.667C1332.7 273.667 1343 246.207 1343 212.333C1343 178.46 1332.7 151 1320 151C1307.3 151 1297 178.46 1297 212.333C1297 246.207 1307.3 273.667 1320 273.667Z" fill="#5334AA"/>
<path d="M1320 273.667C1332.7 273.667 1343 246.207 1343 212.333C1343 178.46 1332.7 151 1320 151C1307.3 151 1297 178.46 1297 212.333C1297 246.207 1307.3 273.667 1320 273.667Z" stroke="#00233A" stroke-width="3.83333" stroke-miterlimit="10" stroke-linecap="round" stroke-linejoin="round"/>
<path d="M1319.88 192.094V312.077" stroke="#00233A" stroke-width="3.83333" stroke-miterlimit="10" stroke-linecap="round" stroke-linejoin="round"/>
<path d="M1320 229.66L1329.08 217.777" stroke="#00233A" stroke-width="3.83333" stroke-miterlimit="10" stroke-linecap="round" stroke-linejoin="round"/>
<path d="M1320 253.044L1310.19 242.809" stroke="#00233A" stroke-width="3.83333" stroke-miterlimit="10" stroke-linecap="round" stroke-linejoin="round"/>
<path d="M1319.88 212.142L1311.95 203.21" stroke="#00233A" stroke-width="3.83333" stroke-miterlimit="10" stroke-linecap="round" stroke-linejoin="round"/>
<path d="M1248.72 234.714C1227.92 234.714 1212.12 213.314 1212.02 190.014C1211.42 131.314 1226.42 68.9139 1251.12 5.11392C1252.22 2.21392 1255.82 2.31394 1256.82 5.31394C1278.32 70.3139 1288.32 132.214 1285.52 191.414C1284.62 214.314 1269.02 234.714 1248.72 234.714Z" fill="#4B2D9F"/>
<path d="M1248.72 234.714C1227.92 234.714 1212.12 213.314 1212.02 190.014C1211.42 131.314 1226.42 68.9139 1251.12 5.11392C1252.22 2.21392 1255.82 2.31394 1256.82 5.31394C1278.32 70.3139 1288.32 132.214 1285.52 191.414C1284.62 214.314 1269.02 234.714 1248.72 234.714Z" fill="#4B2D9F" stroke="#00233A" stroke-width="6" stroke-miterlimit="10" stroke-linecap="round" stroke-linejoin="round"/>
<path d="M1251.12 312.014V121.814V312.014Z" fill="#4B2D9F"/>
<path d="M1251.12 312.014V121.814" stroke="#00233A" stroke-width="6" stroke-miterlimit="10" stroke-linecap="round" stroke-linejoin="round"/>
<path d="M1265.92 171.814L1251.12 188.814L1265.92 171.814Z" fill="#4B2D9F"/>
<path d="M1265.92 171.814L1251.12 188.814" stroke="#00233A" stroke-width="6" stroke-miterlimit="10" stroke-linecap="round" stroke-linejoin="round"/>
<path d="M1260.92 131.914L1251.12 146.314L1260.92 131.914Z" fill="#4B2D9F"/>
<path d="M1260.92 131.914L1251.12 146.314" stroke="#00233A" stroke-width="6" stroke-miterlimit="10" stroke-linecap="round" stroke-linejoin="round"/>
<path d="M1251.12 168.814L1237.92 159.414L1251.12 168.814Z" fill="#4B2D9F"/>
<path d="M1251.12 168.814L1237.92 159.414" stroke="#00233A" stroke-width="6" stroke-miterlimit="10" stroke-linecap="round" stroke-linejoin="round"/>
<path d="M707.092 234.202C695.105 234.292 686.125 228.455 678.672 220.329C677.235 218.712 675.844 216.557 674.587 214.133C668.166 202.01 666.46 187.958 669.378 174.533C674.182 152.534 684.688 113.114 702.962 84.2898C704.892 81.2367 709.337 81.2367 711.268 84.2898C729.496 113.114 740.002 152.534 744.851 174.533C747.769 187.913 746.018 202.01 739.643 214.133C738.386 216.512 736.994 218.667 735.557 220.329C728.059 228.455 719.08 234.292 707.092 234.202Z" fill="#4B2D9F"/>
<path opacity="0.4" d="M744.311 174.533C739.507 152.534 729.001 113.114 710.728 84.2899C709.291 82.045 706.463 81.4613 704.308 82.5838C706.014 83.9756 707.451 85.7715 708.528 87.9714C722.491 116.436 730.977 149.032 735.287 168.742C738.475 183.243 736.589 198.419 729.72 211.574C728.283 214.312 726.756 216.782 725.095 218.667C718.091 226.3 709.83 232.137 699.324 233.528C701.614 234.022 703.994 234.247 706.553 234.247C718.54 234.337 727.52 228.5 734.973 220.374C736.409 218.757 737.801 216.602 739.058 214.178C745.524 202.011 747.275 187.958 744.311 174.533Z" fill="#331783"/>
<path d="M707.092 234.202C695.105 234.292 686.125 228.455 678.672 220.329C677.235 218.712 675.844 216.557 674.587 214.133C668.166 202.01 666.46 187.958 669.378 174.533C674.182 152.534 684.688 113.114 702.962 84.2898C704.892 81.2367 709.337 81.2367 711.268 84.2898C729.496 113.114 740.002 152.534 744.851 174.533C747.769 187.913 746.018 202.01 739.643 214.133C738.386 216.512 736.994 218.667 735.557 220.329C728.059 228.455 719.08 234.292 707.092 234.202Z" stroke="#00233A" stroke-width="4.48973" stroke-miterlimit="10" stroke-linecap="round" stroke-linejoin="round"/>
<path d="M707.094 208.7L725.951 195.096" stroke="#00233A" stroke-width="4.48973" stroke-miterlimit="10" stroke-linecap="round" stroke-linejoin="round"/>
<path d="M707.09 189.843L690.254 176.823" stroke="#00233A" stroke-width="4.48973" stroke-miterlimit="10" stroke-linecap="round" stroke-linejoin="round"/>
<path d="M707.094 284.577V157.966" stroke="#00233A" stroke-width="4.48973" stroke-miterlimit="10" stroke-linecap="round" stroke-linejoin="round"/>
<ellipse cx="973" cy="860.5" rx="916" ry="610.5" fill="#270095"/>
</svg>
